<svg width="418" height="392" viewBox="0 0 418 392" fill="none" xmlns="http://www.w3.org/2000/svg">
<g filter="url(#filter0_d_195_332)">
<circle cx="205" cy="70" r="50" fill="white"/>
<circle cx="205" cy="70" r="49.5" stroke="black" stroke-opacity="0.2"/>
</g>
<g filter="url(#filter1_d_195_332)">
<circle cx="55" cy="182" r="50" fill="#48CAE4" fill-opacity="0.5" shape-rendering="crispEdges"/>
<circle cx="55" cy="182" r="49.5" stroke="black" stroke-opacity="0.2" shape-rendering="crispEdges"/>
</g>
<g filter="url(#filter2_d_195_332)">
<circle cx="357" cy="331" r="50" fill="white"/>
<circle cx="357" cy="331" r="49.5" stroke="black" stroke-opacity="0.2"/>
</g>
<g opacity="0.5" filter="url(#filter3_d_195_332)">
<mask id="path-7-inside-1_195_332" fill="white">
<path d="M3 8C3 5.23858 5.23858 3 8 3H402C404.761 3 407 5.23858 407 8V376C407 378.761 404.761 381 402 381H8C5.23858 381 3 378.761 3 376V8Z"/>
</mask>
<path d="M3 8C3 5.23858 5.23858 3 8 3H402C404.761 3 407 5.23858 407 8V376C407 378.761 404.761 381 402 381H8C5.23858 381 3 378.761 3 376V8Z" fill="#48CAE4"/>
<path d="M2 8C2 4.68629 4.68629 2 8 2H401C404.314 2 407 4.68629 407 8C407 5.79086 404.761 4 402 4H8C5.79086 4 4 5.79086 4 8H2ZM407 381H3H407ZM8 381C4.68629 381 2 378.314 2 375V8C2 4.68629 4.68629 2 8 2V4C5.79086 4 4 5.79086 4 8V376C4 378.761 5.79086 381 8 381ZM407 3V381V3Z" fill="black" fill-opacity="0.2" mask="url(#path-7-inside-1_195_332)"/>
</g>
<defs>
<filter id="filter0_d_195_332" x="154" y="19" width="110" height="110" filterUnits="userSpaceOnUse" color-interpolation-filters="sRGB">
<feFlood flood-opacity="0" result="BackgroundImageFix"/>
<feColorMatrix in="SourceAlpha" type="matrix" values="0 0 0 0 0 0 0 0 0 0 0 0 0 0 0 0 0 0 127 0" result="hardAlpha"/>
<feMorphology radius="1" operator="dilate" in="SourceAlpha" result="effect1_dropShadow_195_332"/>
<feOffset dx="4" dy="4"/>
<feGaussianBlur stdDeviation="2"/>
<feComposite in2="hardAlpha" operator="out"/>
<feColorMatrix type="matrix" values="0 0 0 0 0 0 0 0 0 0 0 0 0 0 0 0 0 0 0.25 0"/>
<feBlend mode="normal" in2="BackgroundImageFix" result="effect1_dropShadow_195_332"/>
<feBlend mode="normal" in="SourceGraphic" in2="effect1_dropShadow_195_332" result="shape"/>
</filter>
<filter id="filter1_d_195_332" x="4" y="131" width="110" height="110" filterUnits="userSpaceOnUse" color-interpolation-filters="sRGB">
<feFlood flood-opacity="0" result="BackgroundImageFix"/>
<feColorMatrix in="SourceAlpha" type="matrix" values="0 0 0 0 0 0 0 0 0 0 0 0 0 0 0 0 0 0 127 0" result="hardAlpha"/>
<feMorphology radius="1" operator="dilate" in="SourceAlpha" result="effect1_dropShadow_195_332"/>
<feOffset dx="4" dy="4"/>
<feGaussianBlur stdDeviation="2"/>
<feComposite in2="hardAlpha" operator="out"/>
<feColorMatrix type="matrix" values="0 0 0 0 0 0 0 0 0 0 0 0 0 0 0 0 0 0 0.25 0"/>
<feBlend mode="normal" in2="BackgroundImageFix" result="effect1_dropShadow_195_332"/>
<feBlend mode="normal" in="SourceGraphic" in2="effect1_dropShadow_195_332" result="shape"/>
</filter>
<filter id="filter2_d_195_332" x="306" y="280" width="110" height="110" filterUnits="userSpaceOnUse" color-interpolation-filters="sRGB">
<feFlood flood-opacity="0" result="BackgroundImageFix"/>
<feColorMatrix in="SourceAlpha" type="matrix" values="0 0 0 0 0 0 0 0 0 0 0 0 0 0 0 0 0 0 127 0" result="hardAlpha"/>
<feMorphology radius="1" operator="dilate" in="SourceAlpha" result="effect1_dropShadow_195_332"/>
<feOffset dx="4" dy="4"/>
<feGaussianBlur stdDeviation="2"/>
<feComposite in2="hardAlpha" operator="out"/>
<feColorMatrix type="matrix" values="0 0 0 0 0 0 0 0 0 0 0 0 0 0 0 0 0 0 0.25 0"/>
<feBlend mode="normal" in2="BackgroundImageFix" result="effect1_dropShadow_195_332"/>
<feBlend mode="normal" in="SourceGraphic" in2="effect1_dropShadow_195_332" result="shape"/>
</filter>
<filter id="filter3_d_195_332" x="0" y="0" width="418" height="392" filterUnits="userSpaceOnUse" color-interpolation-filters="sRGB">
<feFlood flood-opacity="0" result="BackgroundImageFix"/>
<feColorMatrix in="SourceAlpha" type="matrix" values="0 0 0 0 0 0 0 0 0 0 0 0 0 0 0 0 0 0 127 0" result="hardAlpha"/>
<feMorphology radius="3" operator="dilate" in="SourceAlpha" result="effect1_dropShadow_195_332"/>
<feOffset dx="4" dy="4"/>
<feGaussianBlur stdDeviation="2"/>
<feComposite in2="hardAlpha" operator="out"/>
<feColorMatrix type="matrix" values="0 0 0 0 0 0 0 0 0 0 0 0 0 0 0 0 0 0 0.5 0"/>
<feBlend mode="normal" in2="BackgroundImageFix" result="effect1_dropShadow_195_332"/>
<feBlend mode="normal" in="SourceGraphic" in2="effect1_dropShadow_195_332" result="shape"/>
</filter>
</defs>
</svg>
