<svg width="100" height="100" viewBox="0 0 100 100" fill="none" xmlns="http://www.w3.org/2000/svg">
<rect width="100" height="100" rx="20" fill="url(#paint0_linear_56_26)"/>
<path d="M19.0606 56.784C19.0606 55.568 19.3486 53.424 19.9246 50.352C20.5006 47.28 20.8526 45.3387 20.9806 44.528L19.2846 41.104C21.994 39.568 24.298 38.8 26.1966 38.8C27.1353 38.8 27.8393 39.12 28.3086 39.76C30.0793 39.1413 31.7113 38.832 33.2046 38.832C35.978 38.832 38.1326 39.7387 39.6686 41.552C41.2046 43.344 41.9726 45.584 41.9726 48.272C41.9726 51.8133 40.6713 55.0667 38.0686 58.032C36.81 59.4613 35.146 60.6133 33.0766 61.488C31.0286 62.3627 28.8313 62.8 26.4846 62.8C24.138 62.8 22.314 62.288 21.0126 61.264C19.7113 60.2187 19.0606 58.7253 19.0606 56.784ZM25.8446 58C26.2926 58.0853 26.794 58.128 27.3486 58.128C29.674 58.128 31.4873 57.296 32.7886 55.632C34.09 53.9467 34.7406 51.8773 34.7406 49.424C34.7406 47.44 34.2926 45.8613 33.3966 44.688C32.5006 43.5147 31.21 42.928 29.5246 42.928C29.2686 42.928 28.842 42.9707 28.2446 43.056C28.0953 44.144 27.7006 46.576 27.0606 50.352C26.442 54.1067 26.0366 56.656 25.8446 58ZM42.4004 44.336C42.4004 42.608 42.8484 41.3067 43.7444 40.432C44.6404 39.5573 45.707 39.12 46.9444 39.12C48.203 39.12 49.9097 39.3333 52.0644 39.76C54.219 40.1867 55.8404 40.4107 56.9284 40.432C58.7417 40.0907 60.4697 39.6747 62.1124 39.184C62.283 39.7387 62.3684 40.432 62.3684 41.264C62.3684 42.992 61.867 44.2933 60.8644 45.168C59.883 46.0427 58.6244 46.48 57.0884 46.48C56.7044 46.48 56.1924 46.4587 55.5524 46.416C54.379 52.5813 53.7924 56.0267 53.7924 56.752C53.7924 58.8213 54.1124 60.368 54.7524 61.392C53.4724 62.352 52.139 62.832 50.7524 62.832C49.3657 62.832 48.3737 62.4373 47.7764 61.648C47.179 60.8373 46.8804 59.6427 46.8804 58.064C46.8804 56.464 47.499 52.2187 48.7364 45.328C46.3257 45.648 44.299 46.0107 42.6564 46.416C42.4857 45.8827 42.4004 45.1893 42.4004 44.336ZM61.9756 52.176C61.9756 50.6827 62.2956 49.168 62.9356 47.632C63.5756 46.0747 64.4823 44.6347 65.6556 43.312C66.829 41.9893 68.3543 40.912 70.2316 40.08C72.1303 39.2267 74.0823 38.8 76.0876 38.8C78.1143 38.8 79.693 39.1733 80.8236 39.92C81.9756 40.6667 82.5516 41.7013 82.5516 43.024C82.5516 44.3467 82.1143 45.3813 81.2396 46.128C80.3863 46.8533 79.405 47.216 78.2956 47.216C77.1863 47.216 76.1836 46.9813 75.2876 46.512C74.413 46.0213 73.709 45.328 73.1756 44.432C72.0236 44.9867 71.0316 46.0747 70.1996 47.696C69.3676 49.3173 68.9516 50.9493 68.9516 52.592C68.9516 54.2133 69.2183 55.504 69.7516 56.464C70.285 57.4027 71.0423 57.872 72.0236 57.872C73.005 57.872 73.869 57.3707 74.6156 56.368C75.3836 55.3653 75.7676 54.16 75.7676 52.752C77.9223 52.752 79.4583 52.9227 80.3756 53.264C81.3143 53.6053 81.7836 54.3413 81.7836 55.472C81.7836 57.2427 80.8236 58.9067 78.9036 60.464C76.9836 62.0213 74.573 62.8 71.6716 62.8C68.7703 62.8 66.4236 61.904 64.6316 60.112C62.861 58.32 61.9756 55.6747 61.9756 52.176Z" fill="url(#paint1_linear_56_26)"/>
<defs>
<linearGradient id="paint0_linear_56_26" x1="50" y1="0" x2="50" y2="100" gradientUnits="userSpaceOnUse">
<stop stop-color="#2759A3" stop-opacity="0.725726"/>
<stop offset="0.291667" stop-color="#345E9D"/>
<stop offset="0.59375" stop-color="#36609F" stop-opacity="0"/>
<stop offset="0.765625" stop-color="#244E8D"/>
</linearGradient>
<linearGradient id="paint1_linear_56_26" x1="50" y1="8" x2="50" y2="92" gradientUnits="userSpaceOnUse">
<stop offset="0.234375" stop-opacity="0"/>
<stop offset="0.510417" stop-color="white"/>
<stop offset="0.739583"/>
</linearGradient>
</defs>
</svg>
