<svg width="200" height="200" viewBox="0 0 200 200" fill="none" xmlns="http://www.w3.org/2000/svg">
<g clip-path="url(#clip0_325_712)">
<rect width="200" height="200" rx="20" fill="white"/>
<path d="M97.6681 178.018L80.22 142.941C89.2602 137.3 95.6321 123.947 95.6321 108.41C95.6321 87.7876 84.4239 71 70.6448 71H44.3372C44.2329 71 44.1426 71.063 44.0453 71.0945H39.5565C38.6949 71.0945 38 72.1451 38 73.4478V179.51C38 180.813 38.6949 181.863 39.5565 181.863H54.7671C55.6287 181.863 56.3236 180.813 56.3236 179.51V145.809H62.3272L79.8378 181.012C80.1505 181.632 80.6369 182 81.1511 182H96.3617C96.9871 182 97.5569 181.464 97.8279 180.624C98.1058 179.783 98.0433 178.775 97.6681 178.018ZM69.4704 123.758C69.2203 123.79 68.9701 123.821 68.72 123.821H56.5807C56.546 123.821 56.5182 123.779 56.4834 123.758C56.4209 123.737 56.3583 123.716 56.3166 123.653C56.2724 123.598 56.2364 123.529 56.2113 123.451C56.1861 123.373 56.1723 123.288 56.1707 123.201V93.5971C56.1707 93.4185 56.2263 93.2609 56.3166 93.1454C56.3583 93.0928 56.4139 93.0718 56.4695 93.0508C56.5112 93.0298 56.539 92.9773 56.5807 92.9773H68.713C69.0049 92.9773 69.2967 93.0088 69.5816 93.0508C74.5985 93.7442 78.5454 100.363 78.5454 108.399C78.5523 116.509 74.543 123.149 69.4704 123.758Z" fill="url(#paint0_linear_325_712)"/>
<rect x="38" y="93" width="19" height="8" fill="white"/>
<path d="M138.211 37H61.7891C60.7987 37 60 38.0053 60 39.2519V57.3374C60 58.584 60.7987 59.5893 61.7891 59.5893H89.4649V140.748C89.4649 141.995 90.2636 143 91.254 143H108.746C109.736 143 110.535 141.995 110.535 140.748V59.5893H138.211C139.201 59.5893 140 58.584 140 57.3374V39.2519C140 38.0053 139.201 37 138.211 37Z" fill="url(#paint1_linear_325_712)"/>
<path d="M81 68.4258L101.995 44.7158L88.6207 72.1419L81 68.4258Z" fill="white"/>
<path d="M161.918 133.151L154.763 118.456C154.662 118.244 154.472 118.092 154.25 118.039C154.028 117.986 153.8 118.046 153.623 118.191C149.617 121.503 142.735 124.002 137.609 124.002C127.704 124.002 120.5 117.015 120.5 107C120.5 96.9853 127.704 89.9849 137.609 89.9849C142.97 89.9849 148.47 91.783 151.956 94.6849C152.127 94.8303 152.361 94.8832 152.577 94.8436C152.792 94.7973 152.983 94.6519 153.09 94.4469L161.024 79.3687C161.202 79.0316 161.119 78.6085 160.828 78.3705C154.827 73.4128 147.209 71 137.539 71C116.943 71 102 86.1443 102 107C102 127.862 116.943 143 137.539 143C146.962 143 155.105 140.012 161.734 134.109C162 133.871 162.076 133.474 161.918 133.151Z" fill="url(#paint2_linear_325_712)"/>
<path d="M144 93.4824L154.17 81.7532L147.595 95.2356L144 93.4824Z" fill="white"/>
<path d="M38 143H162L155 145H38V143Z" fill="url(#paint3_linear_325_712)"/>
<path d="M160 159.333L200 120V200H120L160 159.333Z" fill="#147390"/>
<path d="M40 40.6667L-2.38419e-06 80L-2.38419e-06 -2.38419e-06L80 -2.38419e-06L40 40.6667Z" fill="#147390"/>
</g>
<defs>
<linearGradient id="paint0_linear_325_712" x1="92.4186" y1="90.0286" x2="13.2157" y2="148.331" gradientUnits="userSpaceOnUse">
<stop stop-color="#40C0E7"/>
<stop offset="0.546875" stop-color="#01526B"/>
<stop offset="0.546975" stop-color="#48CAE4"/>
<stop offset="1"/>
</linearGradient>
<linearGradient id="paint1_linear_325_712" x1="139.872" y1="37" x2="70.8325" y2="128.42" gradientUnits="userSpaceOnUse">
<stop stop-color="#40C0E7"/>
<stop offset="0.572917" stop-color="#01526B"/>
<stop offset="0.579823" stop-color="#40C0E7"/>
<stop offset="1"/>
</linearGradient>
<linearGradient id="paint2_linear_325_712" x1="161.053" y1="78.8857" x2="112.177" y2="132.523" gradientUnits="userSpaceOnUse">
<stop stop-color="#40C0E7"/>
<stop offset="0.546875" stop-color="#01526B"/>
<stop offset="0.546975" stop-color="#40C0E7"/>
<stop offset="1"/>
</linearGradient>
<linearGradient id="paint3_linear_325_712" x1="38" y1="143" x2="162" y2="145" gradientUnits="userSpaceOnUse">
<stop/>
<stop offset="0.505208" stop-color="#48CAE4"/>
<stop offset="1"/>
</linearGradient>
<clipPath id="clip0_325_712">
<rect width="200" height="200" rx="20" fill="white"/>
</clipPath>
</defs>
</svg>
